<?xml version="1.0"?>
<svg xmlns="http://www.w3.org/2000/svg" enable-background="new 0 0 100 100" height="512px" viewBox="0 0 100 100" width="512px" class=""><g><g fill="#e6e7e8"><path d="m5 48.078709h9.922737v37.267372h-9.922737z" data-original="#000000" class="active-path" style="fill:#DAD7DC" data-old_color="#D7D9DB"/><path d="m19.252026 37.838928h9.922737v47.507153h-9.922737z" data-original="#000000" class="active-path" style="fill:#DAD7DC" data-old_color="#D7D9DB"/><path d="m33.504051 27.599152h9.922737v57.746929h-9.922737z" data-original="#000000" class="active-path" style="fill:#DAD7DC" data-old_color="#D7D9DB"/><path d="m47.756073 17.359373h9.922737v67.98671h-9.922737z" data-original="#000000" class="active-path" style="fill:#DAD7DC" data-old_color="#D7D9DB"/><path d="m62.008099 7.119594h9.922737v78.226486h-9.922737z" data-original="#000000" class="active-path" style="fill:#DAD7DC" data-old_color="#D7D9DB"/></g><path d="m93.9998169 91.0225296-.8576965.8576889c-1.6211777 1.6211853-4.2496262 1.6211853-5.8708115 0l-18.7914047-18.7914047 6.728508-6.7285004 18.7914047 18.7914047c1.6211777 1.6211777 1.6211777 4.2496338 0 5.8708115z" fill="#cd5148" data-original="#CD5148" class="" style="fill:#4388B9" data-old_color="#CD5148"/><circle cx="61.154" cy="59.034" fill="#344e5c" r="22.179" data-original="#344E5C" class="" style="fill:#4388B9" data-old_color="#344E5C"/><circle cx="61.154" cy="59.034" fill="#4388b9" r="16.154" data-original="#4388B9" class="" style="fill:#FFFFFF" data-old_color="#ffffff"/><path d="m49.2619781 59.0341034c-.2198944-1.5571289-.056942-3.1998825.4943848-4.7211952.5334206-1.5297127 1.4389458-2.9315491 2.5836067-4.0924721 1.1601868-1.145813 2.5619888-2.0515518 4.0918388-2.585144 1.5215263-.5520592 3.1649094-.7140694 4.7217941-.4930229-3.105587.456089-5.9042625 1.7748222-8.0036926 3.8879318-2.1150703 2.0977211-3.4347839 4.8983154-3.8879318 8.0039024z" fill="#dad7dc" data-original="#DAD7DC" class="" style="fill:#FFFFFF" data-old_color="#ffffff"/></g> </svg>
